<svg width="" height="" viewBox="0 0 271 93" fill="none" xmlns="http://www.w3.org/2000/svg">
<path d="M42.368 92.672C42.112 92.672 41.728 92.416 41.216 91.904C40.7893 91.4773 40.576 91.136 40.576 90.88C40.7467 89.6853 40.8747 88.448 40.96 87.168C41.1307 85.8027 41.2587 84.6507 41.344 83.712V82.944C39.7227 85.3333 37.4187 87.4667 34.432 89.344C31.5307 91.136 28.2027 92.032 24.448 92.032C19.6693 92.032 15.4453 90.8373 11.776 88.448C8.10667 85.9733 5.20533 82.7307 3.072 78.72C1.024 74.624 0 70.2293 0 65.536C0 59.9893 1.23733 54.9973 3.712 50.56C6.272 46.0373 9.81333 42.496 14.336 39.936C18.8587 37.2907 24.1067 35.968 30.08 35.968C31.5307 35.968 32.9813 36.096 34.432 36.352C35.968 36.5227 37.2907 36.7787 38.4 37.12C39.424 37.376 39.9787 37.504 40.064 37.504C40.4907 37.504 40.704 36.7787 40.704 35.328V19.2C40.704 15.9573 40.2773 13.696 39.424 12.416C38.5707 11.136 37.2053 10.3253 35.328 9.984C34.3893 9.728 33.92 9.088 33.92 8.064C33.92 7.12533 34.3467 6.528 35.2 6.272C38.528 5.504 41.6427 4.65067 44.544 3.712C47.5307 2.688 49.9627 1.74934 51.84 0.896004C52.6933 0.55467 53.2907 0.341337 53.632 0.256004C54.0587 0.0853348 54.3147 0 54.4 0C55.2533 0 55.68 0.426666 55.68 1.28C55.68 1.28 55.6373 1.792 55.552 2.816C55.4667 3.84 55.3387 5.248 55.168 7.04C55.0827 8.74667 54.9973 10.7093 54.912 12.928L54.528 75.264C54.528 78.1653 54.7413 80.256 55.168 81.536C55.5947 82.816 56.32 83.456 57.344 83.456C57.7707 83.456 58.3253 83.456 59.008 83.456C59.6907 83.3707 60.8853 83.2427 62.592 83.072C63.872 82.9867 64.512 83.4133 64.512 84.352C64.512 85.0347 64.256 85.7173 63.744 86.4C63.3173 86.9973 62.8907 87.296 62.464 87.296C59.5627 87.6373 56.6187 88.192 53.632 88.96C50.6453 89.728 47.616 90.7093 44.544 91.904C43.9467 92.16 43.4773 92.3307 43.136 92.416C42.88 92.5867 42.624 92.672 42.368 92.672ZM30.336 83.968C31.9573 83.968 33.7493 83.584 35.712 82.816C37.6747 81.9627 39.3387 80.8107 40.704 79.36V52.736C40.704 50.944 40.1067 49.1947 38.912 47.488C37.7173 45.696 36.1387 44.2453 34.176 43.136C32.2133 41.9413 30.1227 41.344 27.904 41.344C25.856 41.344 23.8507 42.112 21.888 43.648C19.9253 45.0987 18.2613 47.36 16.896 50.432C15.616 53.504 14.976 57.4293 14.976 62.208C14.976 66.1333 15.4453 69.504 16.384 72.32C17.408 75.0507 18.688 77.2693 20.224 78.976C21.76 80.6827 23.424 81.9627 25.216 82.816C27.008 83.584 28.7147 83.968 30.336 83.968Z" fill="#1F130C"/>
<path d="M69.902 68.992C69.134 68.992 68.75 68.608 68.75 67.84C68.75 65.6213 68.9633 63.8293 69.39 62.464C69.8167 61.0987 70.4567 60.3733 71.31 60.288C75.7473 59.6053 80.3127 58.9653 85.006 58.368C89.7847 57.6853 94.3927 57.1307 98.83 56.704C99.5127 56.704 99.9393 56.8747 100.11 57.216C100.366 57.472 100.494 57.8133 100.494 58.24C100.494 60.544 100.323 62.2933 99.982 63.488C99.6407 64.5973 98.958 65.2373 97.934 65.408C93.582 66.0053 88.9313 66.6453 83.982 67.328C79.118 68.0107 74.4247 68.5653 69.902 68.992Z" fill="#1F130C"/>
<path d="M130.671 92.032C125.551 92.032 121.668 90.6667 119.023 87.936C116.378 85.2053 115.055 81.2373 115.055 76.032V46.464C115.055 45.7813 114.756 45.2693 114.159 44.928C113.647 44.5867 112.58 44.3733 110.959 44.288H109.551C109.039 44.288 108.612 43.904 108.271 43.136C107.93 42.2827 107.759 41.472 107.759 40.704C107.759 40.5333 107.802 40.32 107.887 40.064C108.058 39.7227 108.271 39.5093 108.527 39.424C110.49 38.5707 112.495 37.4187 114.543 35.968C116.591 34.432 118.511 32.896 120.303 31.36C122.095 29.7387 123.588 28.3733 124.783 27.264C125.38 26.8373 125.85 26.4533 126.191 26.112C126.618 25.7707 127.087 25.6 127.599 25.6C128.282 25.6 128.794 25.7707 129.135 26.112C129.562 26.368 129.69 26.9227 129.519 27.776L128.751 34.816C128.666 35.84 128.879 36.5227 129.391 36.864C129.988 37.2053 130.799 37.376 131.823 37.376H146.927C147.183 37.376 147.439 37.6747 147.695 38.272C147.951 38.8693 148.079 39.4667 148.079 40.064C148.079 41.1733 147.908 42.1973 147.567 43.136C147.311 44.0747 146.97 44.544 146.543 44.544H134.383C132.42 44.544 131.055 44.7573 130.287 45.184C129.604 45.6107 129.263 46.5067 129.263 47.872V72.448C129.263 76.2027 129.988 79.0613 131.439 81.024C132.89 82.9013 134.938 83.84 137.583 83.84C139.972 83.84 141.764 83.6267 142.959 83.2C144.239 82.7733 145.391 82.2613 146.415 81.664C146.671 81.4933 146.884 81.408 147.055 81.408C147.482 81.408 147.78 81.664 147.951 82.176C148.207 82.688 148.335 83.2427 148.335 83.84C148.335 84.2667 147.482 85.1627 145.775 86.528C144.154 87.8933 141.978 89.1307 139.247 90.24C136.602 91.4347 133.743 92.032 130.671 92.032Z" fill="#1F130C"/>
<path d="M179.627 92.032C174.592 92.032 170.07 90.9227 166.059 88.704C162.048 86.4 158.848 83.2427 156.459 79.232C154.07 75.2213 152.875 70.6987 152.875 65.664C152.875 61.7387 153.643 57.984 155.179 54.4C156.715 50.816 158.806 47.616 161.451 44.8C164.096 41.984 167.211 39.7653 170.795 38.144C174.379 36.4373 178.219 35.584 182.315 35.584C187.52 35.584 192.171 36.8213 196.267 39.296C200.448 41.6853 203.776 44.8853 206.251 48.896C208.726 52.9067 209.963 57.3013 209.963 62.08C209.963 67.3707 208.811 72.32 206.507 76.928C204.288 81.4507 200.918 85.12 196.395 87.936C191.958 90.6667 186.368 92.032 179.627 92.032ZM182.187 87.04C184.32 87.04 186.198 86.6133 187.819 85.76C189.526 84.9067 190.891 83.584 191.915 81.792C192.939 80 193.622 77.6533 193.963 74.752C194.39 71.7653 194.603 68.5653 194.603 65.152C194.603 60.6293 194.006 56.5333 192.811 52.864C191.616 49.1947 189.952 46.2507 187.819 44.032C185.686 41.8133 183.168 40.704 180.267 40.704C178.646 40.704 177.152 41.0027 175.787 41.6C174.507 42.112 173.312 43.008 172.203 44.288C170.667 46.08 169.6 48.5547 169.003 51.712C168.491 54.784 168.235 58.368 168.235 62.464C168.235 66.56 168.832 70.4853 170.027 74.24C171.307 77.9947 172.971 81.0667 175.019 83.456C177.152 85.8453 179.542 87.04 182.187 87.04Z" fill="#1F130C"/>
<path d="M213.509 90.752C212.912 90.752 212.272 90.6667 211.589 90.496C210.906 90.3253 210.565 89.9413 210.565 89.344C210.565 88.6613 210.778 88.1493 211.205 87.808C211.717 87.3813 212.4 87.04 213.253 86.784C214.277 86.4427 215.344 85.8453 216.453 84.992C217.562 84.0533 218.97 82.432 220.677 80.128L231.813 64.768C232.41 64.0853 232.666 63.5307 232.581 63.104C232.581 62.6773 232.41 62.1653 232.069 61.568L222.085 46.848C220.976 45.1413 219.994 43.8187 219.141 42.88C218.373 41.856 217.306 41.1307 215.941 40.704C215.173 40.448 214.533 40.1493 214.021 39.808C213.594 39.3813 213.381 38.8267 213.381 38.144C213.381 37.4613 213.765 37.0773 214.533 36.992C215.301 36.8213 215.941 36.736 216.453 36.736C218.33 36.736 219.738 36.8213 220.677 36.992C221.701 37.0773 222.725 37.1627 223.749 37.248C224.773 37.3333 226.266 37.376 228.229 37.376C230.448 37.376 232.197 37.2907 233.477 37.12C234.842 36.9493 236.72 36.864 239.109 36.864C239.621 36.864 240.218 36.9493 240.901 37.12C241.669 37.2907 242.053 37.7173 242.053 38.4C242.053 39.0827 241.754 39.552 241.157 39.808C240.645 40.064 240.048 40.32 239.365 40.576C238.682 40.832 237.957 41.1733 237.189 41.6C236.506 41.9413 236.165 42.5387 236.165 43.392C236.165 43.8187 236.293 44.416 236.549 45.184C236.89 45.8667 237.317 46.592 237.829 47.36L243.717 55.936C244.058 56.704 244.442 56.704 244.869 55.936L249.605 48.128C250.032 47.4453 250.373 46.6773 250.629 45.824C250.97 44.9707 251.098 44.2027 251.013 43.52C251.013 42.24 250.33 41.344 248.965 40.832C248.282 40.576 247.642 40.32 247.045 40.064C246.533 39.7227 246.277 39.2107 246.277 38.528C246.277 37.8453 246.661 37.4187 247.429 37.248C248.197 37.0773 248.794 36.992 249.221 36.992C250.928 36.992 252.378 37.0347 253.573 37.12C254.768 37.2053 255.877 37.248 256.901 37.248C258.522 37.248 259.802 37.1627 260.741 36.992C261.765 36.8213 263.216 36.736 265.093 36.736C265.605 36.736 266.202 36.8213 266.885 36.992C267.568 37.0773 267.909 37.4187 267.909 38.016C267.909 38.784 267.653 39.3387 267.141 39.68C266.714 40.0213 266.117 40.3627 265.349 40.704C264.325 41.0453 263.13 41.6427 261.765 42.496C260.485 43.3493 259.12 44.8 257.669 46.848L248.837 59.008C248.41 59.6053 248.197 60.1173 248.197 60.544C248.282 60.8853 248.496 61.3547 248.837 61.952L260.101 79.872C261.21 81.5787 262.405 82.9867 263.685 84.096C264.965 85.2053 266.33 86.0587 267.781 86.656C268.549 86.912 269.146 87.2107 269.573 87.552C270.085 87.8933 270.341 88.448 270.341 89.216C270.341 89.8133 270 90.1547 269.317 90.24C268.634 90.4107 268.037 90.496 267.525 90.496C265.648 90.496 264.069 90.4533 262.789 90.368C261.509 90.2827 260.229 90.1973 258.949 90.112C257.669 89.9413 256.048 89.856 254.085 89.856C251.866 89.856 249.776 89.9413 247.813 90.112C245.85 90.2827 243.674 90.368 241.285 90.368C239.322 90.368 238.341 89.856 238.341 88.832C238.341 88.064 238.597 87.552 239.109 87.296C239.621 86.9547 240.346 86.656 241.285 86.4C242.309 86.0587 243.162 85.5893 243.845 84.992C244.613 84.3947 244.997 83.4133 244.997 82.048C244.997 81.4507 244.912 80.896 244.741 80.384C244.57 79.7867 244.229 79.0613 243.717 78.208L236.805 67.84C236.549 67.584 236.293 67.584 236.037 67.84L229.253 79.104C228.997 79.4453 228.698 80.0427 228.357 80.896C228.016 81.664 227.845 82.432 227.845 83.2C227.845 84.0533 228.016 84.7787 228.357 85.376C228.698 85.9733 229.253 86.4 230.021 86.656C230.704 86.9973 231.344 87.296 231.941 87.552C232.538 87.808 232.837 88.32 232.837 89.088C232.837 89.6853 232.453 90.0693 231.685 90.24C230.917 90.496 230.32 90.624 229.893 90.624C228.186 90.5387 226.778 90.4533 225.669 90.368C224.56 90.368 223.45 90.368 222.341 90.368C220.72 90.368 219.312 90.4107 218.117 90.496C216.922 90.5813 215.386 90.6667 213.509 90.752Z" fill="#1F130C"/>
</svg>
