<svg width="" height="" viewBox="0 0 388 127" fill="none" xmlns="http://www.w3.org/2000/svg">
<path d="M16.512 92.032C13.7813 92.032 11.136 91.648 8.576 90.88C6.10133 90.1973 3.84 89.1307 1.792 87.68C1.19467 86.4853 0.725333 84.608 0.384 82.048C0.128 79.488 0 76.9707 0 74.496C0 73.472 0.725333 72.96 2.176 72.96C2.77333 72.96 3.28533 73.1307 3.712 73.472C4.13867 73.8133 4.43733 74.1973 4.608 74.624C6.05867 78.3787 7.89333 81.408 10.112 83.712C12.3307 85.9307 14.848 87.04 17.664 87.04C20.0533 87.04 21.9307 86.3147 23.296 84.864C24.6613 83.328 25.344 81.5787 25.344 79.616C25.344 77.312 24.4907 75.392 22.784 73.856C21.1627 72.32 18.9013 70.7413 16 69.12C13.3547 67.6693 10.9653 66.1333 8.832 64.512C6.784 62.8907 5.16267 61.056 3.968 59.008C2.77333 56.8747 2.176 54.4 2.176 51.584C2.176 48.4267 2.98667 45.6533 4.608 43.264C6.22933 40.8747 8.49067 38.9973 11.392 37.632C14.3787 36.2667 17.792 35.584 21.632 35.584C24.3627 35.584 26.7947 35.8827 28.928 36.48C31.1467 37.0773 32.6827 37.6747 33.536 38.272C34.2187 39.1253 34.7733 40.704 35.2 43.008C35.6267 45.2267 35.84 47.5733 35.84 50.048C35.84 50.816 35.2 51.2 33.92 51.2C33.3227 51.2 32.7253 51.0293 32.128 50.688C31.5307 50.3467 31.1467 50.0053 30.976 49.664C29.8667 46.5067 28.4587 44.1173 26.752 42.496C25.0453 40.8747 23.0827 40.064 20.864 40.064C18.9013 40.064 17.1093 40.704 15.488 41.984C13.952 43.1787 13.184 44.8853 13.184 47.104C13.184 48.896 13.9093 50.5173 15.36 51.968C16.896 53.4187 19.072 54.912 21.888 56.448C27.264 59.3493 31.1467 62.1227 33.536 64.768C35.9253 67.328 37.12 70.784 37.12 75.136C37.12 80.3413 35.328 84.48 31.744 87.552C28.16 90.5387 23.0827 92.032 16.512 92.032Z" fill="white"/>
<path d="M56.788 92.032C54.74 92.032 52.7773 91.4773 50.9 90.368C49.108 89.2587 47.6573 87.808 46.548 86.016C45.4387 84.224 44.884 82.3893 44.884 80.512C44.884 77.6107 45.7373 75.264 47.444 73.472C49.1507 71.5947 51.7107 69.9307 55.124 68.48L67.028 63.36C68.7347 62.6773 69.7587 62.0373 70.1 61.44C70.5267 60.8427 70.74 59.7333 70.74 58.112L70.996 50.56C71.0813 48.1707 70.5693 46.2507 69.46 44.8C68.436 43.3493 66.8573 42.624 64.724 42.624C63.6147 42.624 62.4627 42.8373 61.268 43.264C60.0733 43.6907 59.1347 44.2453 58.452 44.928C58.1107 45.2693 57.8547 45.7387 57.684 46.336C57.5987 46.848 57.556 47.36 57.556 47.872C57.556 48.2987 57.556 48.8533 57.556 49.536C57.6413 50.1333 57.684 50.688 57.684 51.2C57.684 51.712 57.044 52.352 55.764 53.12C54.484 53.888 53.0333 54.5707 51.412 55.168C49.7907 55.7653 48.4253 56.064 47.316 56.064C46.7187 56.064 46.2493 55.8507 45.908 55.424C45.5667 54.9973 45.396 54.4853 45.396 53.888C45.396 52.5227 45.8227 51.1573 46.676 49.792C47.6147 48.3413 49.0653 46.8053 51.028 45.184C53.1613 43.392 55.508 41.8133 58.068 40.448C60.628 38.9973 63.1027 37.8453 65.492 36.992C67.9667 36.1387 70.1 35.712 71.892 35.712C75.988 35.712 79.2733 37.0773 81.748 39.808C84.2227 42.4533 85.4173 45.952 85.332 50.304L84.692 77.696C84.6067 79.5733 84.948 81.152 85.716 82.432C86.5693 83.712 87.5933 84.352 88.788 84.352C90.58 84.352 92.0307 83.84 93.14 82.816C93.4813 82.4747 93.78 82.304 94.036 82.304C94.4627 82.304 94.804 82.4747 95.06 82.816C95.4013 83.072 95.572 83.4133 95.572 83.84C95.572 84.7787 94.8893 85.9307 93.524 87.296C91.988 88.832 90.324 89.984 88.532 90.752C86.8253 91.6053 85.1187 92.032 83.412 92.032C78.8893 92.032 75.22 89.6853 72.404 84.992H72.02C69.204 87.4667 66.6013 89.2587 64.212 90.368C61.908 91.4773 59.4333 92.032 56.788 92.032ZM63.828 84.352C65.0227 84.352 66.0467 84.1813 66.9 83.84C67.7533 83.4133 68.4787 82.8587 69.076 82.176C69.4173 81.7493 69.6733 81.2373 69.844 80.64C70.1 80.0427 70.2707 79.1893 70.356 78.08L70.612 69.888C70.6973 69.0347 70.612 68.48 70.356 68.224C70.1 67.8827 69.8013 67.712 69.46 67.712C69.2893 67.712 69.0333 67.7547 68.692 67.84C68.3507 67.84 67.9667 67.968 67.54 68.224C64.3827 69.504 62.1213 70.8693 60.756 72.32C59.3907 73.7707 58.708 75.648 58.708 77.952C58.708 80.256 59.2627 81.92 60.372 82.944C61.4813 83.8827 62.6333 84.352 63.828 84.352Z" fill="white"/>
<path d="M111.163 92.032C109.115 92.032 107.152 91.4773 105.275 90.368C103.483 89.2587 102.032 87.808 100.923 86.016C99.8137 84.224 99.259 82.3893 99.259 80.512C99.259 77.6107 100.112 75.264 101.819 73.472C103.526 71.5947 106.086 69.9307 109.499 68.48L121.403 63.36C123.11 62.6773 124.134 62.0373 124.475 61.44C124.902 60.8427 125.115 59.7333 125.115 58.112L125.371 50.56C125.456 48.1707 124.944 46.2507 123.835 44.8C122.811 43.3493 121.232 42.624 119.099 42.624C117.99 42.624 116.838 42.8373 115.643 43.264C114.448 43.6907 113.51 44.2453 112.827 44.928C112.486 45.2693 112.23 45.7387 112.059 46.336C111.974 46.848 111.931 47.36 111.931 47.872C111.931 48.2987 111.931 48.8533 111.931 49.536C112.016 50.1333 112.059 50.688 112.059 51.2C112.059 51.712 111.419 52.352 110.139 53.12C108.859 53.888 107.408 54.5707 105.787 55.168C104.166 55.7653 102.8 56.064 101.691 56.064C101.094 56.064 100.624 55.8507 100.283 55.424C99.9417 54.9973 99.771 54.4853 99.771 53.888C99.771 52.5227 100.198 51.1573 101.051 49.792C101.99 48.3413 103.44 46.8053 105.403 45.184C107.536 43.392 109.883 41.8133 112.443 40.448C115.003 38.9973 117.478 37.8453 119.867 36.992C122.342 36.1387 124.475 35.712 126.267 35.712C130.363 35.712 133.648 37.0773 136.123 39.808C138.598 42.4533 139.792 45.952 139.707 50.304L139.067 77.696C138.982 79.5733 139.323 81.152 140.091 82.432C140.944 83.712 141.968 84.352 143.163 84.352C144.955 84.352 146.406 83.84 147.515 82.816C147.856 82.4747 148.155 82.304 148.411 82.304C148.838 82.304 149.179 82.4747 149.435 82.816C149.776 83.072 149.947 83.4133 149.947 83.84C149.947 84.7787 149.264 85.9307 147.899 87.296C146.363 88.832 144.699 89.984 142.907 90.752C141.2 91.6053 139.494 92.032 137.787 92.032C133.264 92.032 129.595 89.6853 126.779 84.992H126.395C123.579 87.4667 120.976 89.2587 118.587 90.368C116.283 91.4773 113.808 92.032 111.163 92.032ZM118.203 84.352C119.398 84.352 120.422 84.1813 121.275 83.84C122.128 83.4133 122.854 82.8587 123.451 82.176C123.792 81.7493 124.048 81.2373 124.219 80.64C124.475 80.0427 124.646 79.1893 124.731 78.08L124.987 69.888C125.072 69.0347 124.987 68.48 124.731 68.224C124.475 67.8827 124.176 67.712 123.835 67.712C123.664 67.712 123.408 67.7547 123.067 67.84C122.726 67.84 122.342 67.968 121.915 68.224C118.758 69.504 116.496 70.8693 115.131 72.32C113.766 73.7707 113.083 75.648 113.083 77.952C113.083 80.256 113.638 81.92 114.747 82.944C115.856 83.8827 117.008 84.352 118.203 84.352Z" fill="white"/>
<path d="M188.322 126.848C187.81 126.848 187.298 126.72 186.786 126.464C186.274 126.208 186.018 125.824 186.018 125.312C186.018 124.629 186.317 124.117 186.914 123.776C187.511 123.435 188.194 123.136 188.962 122.88C190.839 122.283 192.333 121.6 193.442 120.832C194.551 120.149 195.106 118.912 195.106 117.12V88.448C195.106 87.2533 195.021 86.4 194.85 85.888C194.679 85.376 194.509 85.12 194.338 85.12C194.167 85.2053 193.954 85.2907 193.698 85.376C193.527 85.376 193.357 85.4613 193.186 85.632C192.162 86.3147 190.797 87.168 189.09 88.192C187.383 89.216 185.506 90.112 183.458 90.88C181.495 91.648 179.575 92.032 177.698 92.032C173.175 92.032 169.037 90.9653 165.282 88.832C161.527 86.6133 158.541 83.584 156.322 79.744C154.103 75.8187 152.994 71.296 152.994 66.176C152.994 60.6293 154.189 55.552 156.578 50.944C159.053 46.2507 162.637 42.5387 167.33 39.808C172.109 36.992 177.869 35.584 184.61 35.584C187.597 35.584 190.285 35.84 192.674 36.352C195.063 36.864 197.069 37.376 198.69 37.888C200.397 38.4 201.634 38.656 202.402 38.656C203.255 38.656 204.023 38.4427 204.706 38.016C205.389 37.5893 205.986 37.0347 206.498 36.352C206.839 36.1813 207.095 36.0107 207.266 35.84C207.522 35.6693 207.778 35.584 208.034 35.584C208.717 35.584 209.271 35.7547 209.698 36.096C210.125 36.352 210.338 36.6933 210.338 37.12C210.338 37.888 210.082 39.5093 209.57 41.984C209.058 44.4587 208.802 47.5307 208.802 51.2L209.058 117.888C209.058 119.424 209.57 120.491 210.594 121.088C211.618 121.685 212.941 122.24 214.562 122.752C215.415 123.008 216.098 123.307 216.61 123.648C217.207 124.075 217.506 124.629 217.506 125.312C217.506 125.824 217.207 126.208 216.61 126.464C216.098 126.72 215.543 126.848 214.946 126.848C212.386 126.848 210.125 126.72 208.162 126.464C206.199 126.293 204.109 126.208 201.89 126.208C200.439 126.208 198.989 126.251 197.538 126.336C196.087 126.421 194.594 126.507 193.058 126.592C191.607 126.763 190.029 126.848 188.322 126.848ZM183.97 84.096C186.103 84.096 188.237 83.712 190.37 82.944C192.503 82.176 194.125 81.152 195.234 79.872C195.234 78.592 195.234 76.8 195.234 74.496C195.234 72.1067 195.234 69.632 195.234 67.072C195.234 64.4267 195.191 61.9947 195.106 59.776C195.106 57.472 195.106 55.7653 195.106 54.656C195.106 50.6453 193.783 47.3173 191.138 44.672C188.578 42.0267 185.549 40.704 182.05 40.704C179.575 40.704 177.314 41.6427 175.266 43.52C173.218 45.3973 171.554 48 170.274 51.328C169.079 54.5707 168.482 58.368 168.482 62.72C168.482 66.048 168.909 69.0347 169.762 71.68C170.615 74.3253 171.767 76.5867 173.218 78.464C174.669 80.256 176.333 81.664 178.21 82.688C180.087 83.6267 182.007 84.096 183.97 84.096Z" fill="white"/>
<path d="M262.722 92.8C262.039 92.8 261.698 92.416 261.698 91.648C261.698 90.7093 261.783 89.3867 261.954 87.68C262.21 85.9733 262.338 84.608 262.338 83.584C262.338 83.328 262.295 83.1147 262.21 82.944C262.21 82.688 262.21 82.5173 262.21 82.432C259.565 85.3333 256.45 87.68 252.866 89.472C249.367 91.264 245.655 92.16 241.73 92.16C238.999 92.16 236.525 91.4347 234.306 89.984C232.173 88.5333 230.466 86.528 229.186 83.968C227.991 81.408 227.394 78.4213 227.394 75.008V50.432C227.394 48.4693 227.01 46.9333 226.242 45.824C225.474 44.6293 224.109 43.7333 222.146 43.136C221.634 43.0507 221.165 42.8373 220.738 42.496C220.397 42.1547 220.226 41.6427 220.226 40.96C220.226 40.2773 220.397 39.7653 220.738 39.424C221.165 39.0827 221.634 38.8693 222.146 38.784C225.559 38.6133 228.503 38.3147 230.978 37.888C233.453 37.376 236.098 36.7787 238.914 36.096C239.255 35.9253 239.597 35.7973 239.938 35.712C240.279 35.6267 240.621 35.584 240.962 35.584C242.071 35.584 242.583 36.1813 242.498 37.376C242.242 39.3387 242.029 41.0027 241.858 42.368C241.687 43.648 241.602 45.2693 241.602 47.232V71.936C241.602 73.984 241.986 75.8187 242.754 77.44C243.522 79.0613 244.589 80.3413 245.954 81.28C247.319 82.2187 248.813 82.7307 250.434 82.816C252.055 82.816 253.549 82.6453 254.914 82.304C256.365 81.9627 257.773 81.1947 259.138 80C259.821 79.488 260.589 78.5493 261.442 77.184C262.295 75.7333 262.722 73.856 262.722 71.552V50.048C262.722 48.4267 262.338 47.1467 261.57 46.208C260.887 45.184 259.949 44.416 258.754 43.904C257.645 43.392 256.493 43.136 255.298 43.136C254.359 43.0507 253.634 42.8373 253.122 42.496C252.61 42.1547 252.354 41.472 252.354 40.448C252.354 39.5947 252.653 38.9973 253.25 38.656C253.847 38.3147 254.53 38.144 255.298 38.144C259.053 37.888 262.082 37.6747 264.386 37.504C266.69 37.3333 268.61 37.12 270.146 36.864C271.767 36.608 273.346 36.2667 274.882 35.84C275.138 35.7547 275.394 35.712 275.65 35.712C275.991 35.6267 276.247 35.584 276.418 35.584C277.613 35.584 278.21 36.0533 278.21 36.992C278.21 37.248 278.167 37.5467 278.082 37.888C278.082 38.144 277.997 38.4427 277.826 38.784C277.741 39.04 277.613 39.7653 277.442 40.96C277.357 42.1547 277.229 43.392 277.058 44.672C276.973 45.952 276.93 46.9333 276.93 47.616V77.312C276.93 79.36 277.143 80.768 277.57 81.536C278.082 82.304 278.637 82.688 279.234 82.688C279.746 82.688 280.471 82.688 281.41 82.688C282.434 82.6027 283.159 82.56 283.586 82.56C284.269 82.56 284.823 82.7307 285.25 83.072C285.677 83.4133 285.89 83.968 285.89 84.736C285.89 85.504 285.719 86.1013 285.378 86.528C285.122 86.8693 284.61 87.0827 283.842 87.168C280.002 87.5093 276.589 88.192 273.602 89.216C270.615 90.1547 268.013 91.0933 265.794 92.032C265.282 92.2027 264.727 92.3733 264.13 92.544C263.618 92.7147 263.149 92.8 262.722 92.8Z" fill="white"/>
<path d="M292.158 90.624C291.475 90.624 290.921 90.496 290.494 90.24C290.067 89.8987 289.854 89.472 289.854 88.96C289.854 88.2773 290.11 87.7653 290.622 87.424C291.134 87.0827 291.731 86.8267 292.414 86.656C294.462 86.144 295.913 85.5893 296.766 84.992C297.705 84.3947 298.174 83.3707 298.174 81.92V54.144C298.174 51.4133 297.747 49.3653 296.894 48C296.041 46.6347 294.59 45.7813 292.542 45.44C292.115 45.3547 291.774 45.1413 291.518 44.8C291.262 44.3733 291.134 43.904 291.134 43.392C291.134 42.1973 291.603 41.5573 292.542 41.472C296.638 40.6187 300.179 39.4667 303.166 38.016C306.238 36.48 308.585 35.2853 310.206 34.432C311.401 33.8347 312.169 33.536 312.51 33.536C313.449 33.536 313.918 33.9627 313.918 34.816C313.833 36.0107 313.662 37.6747 313.406 39.808C313.15 41.856 312.894 44.0747 312.638 46.464C312.467 48.768 312.382 50.944 312.382 52.992V81.792C312.382 83.072 312.851 84.0533 313.79 84.736C314.729 85.4187 316.222 86.0587 318.27 86.656C318.953 86.912 319.55 87.2107 320.062 87.552C320.574 87.808 320.83 88.2773 320.83 88.96C320.83 89.984 320.105 90.496 318.654 90.496C317.033 90.496 315.454 90.4533 313.918 90.368C312.467 90.2827 311.017 90.1973 309.566 90.112C308.201 90.0267 306.75 89.984 305.214 89.984C303.763 89.984 302.355 90.0267 300.99 90.112C299.625 90.1973 298.217 90.2827 296.766 90.368C295.401 90.5387 293.865 90.624 292.158 90.624ZM304.958 26.112C302.483 26.112 300.393 25.2587 298.686 23.552C296.979 21.8453 296.126 19.7973 296.126 17.408C296.126 14.7627 296.979 12.5867 298.686 10.88C300.393 9.17333 302.483 8.32 304.958 8.32C307.518 8.32 309.651 9.17333 311.358 10.88C313.065 12.5867 313.918 14.7627 313.918 17.408C313.918 19.7973 313.065 21.8453 311.358 23.552C309.651 25.2587 307.518 26.112 304.958 26.112Z" fill="white"/>
<path d="M357.348 92.032C355.044 92.032 352.868 91.8187 350.82 91.392C348.857 91.0507 347.023 90.624 345.316 90.112C343.78 89.6853 342.415 89.344 341.22 89.088C340.111 88.7467 339.215 88.576 338.532 88.576C337.849 88.576 337.167 88.7467 336.484 89.088C335.801 89.4293 335.204 89.8133 334.692 90.24C334.009 90.752 333.455 91.008 333.028 91.008C332.431 91.008 331.919 90.8373 331.492 90.496C331.065 90.24 330.852 89.8987 330.852 89.472C330.852 88.704 331.065 87.2533 331.492 85.12C331.919 82.9867 332.089 80.5547 332.004 77.824L331.748 19.2C331.748 16.896 331.321 14.9333 330.468 13.312C329.7 11.6053 328.335 10.496 326.372 9.984C326.031 9.81334 325.689 9.6 325.348 9.344C325.007 9.00267 324.836 8.53334 324.836 7.936C324.836 7.424 324.964 7.04 325.22 6.784C325.561 6.528 325.903 6.35734 326.244 6.272C327.865 5.93067 329.828 5.376 332.132 4.608C334.436 3.84 336.655 3.072 338.788 2.304C340.921 1.45067 342.543 0.853335 343.652 0.512001C344.335 0.170667 344.847 0 345.188 0C345.615 0 345.913 0.128001 346.084 0.384003C346.255 0.639999 346.34 0.938665 346.34 1.28C346.34 1.792 346.255 3.02934 346.084 4.992C345.913 6.86933 345.828 8.91733 345.828 11.136V38.144C345.828 39.424 345.913 40.4053 346.084 41.088C346.255 41.6853 346.553 41.984 346.98 41.984C349.625 40.0213 352.484 38.4853 355.556 37.376C358.628 36.2667 361.487 35.712 364.132 35.712C368.569 35.712 372.537 36.864 376.036 39.168C379.535 41.472 382.308 44.5867 384.356 48.512C386.489 52.352 387.556 56.7893 387.556 61.824C387.556 67.712 386.276 72.96 383.716 77.568C381.156 82.0907 377.615 85.632 373.092 88.192C368.569 90.752 363.321 92.032 357.348 92.032ZM359.78 87.04C362.425 87.04 364.644 86.0587 366.436 84.096C368.313 82.048 369.764 79.36 370.788 76.032C371.812 72.704 372.324 68.992 372.324 64.896C372.324 61.568 371.812 58.1547 370.788 54.656C369.849 51.1573 368.313 48.2133 366.18 45.824C364.047 43.4347 361.273 42.24 357.86 42.24C355.727 42.24 353.551 42.5813 351.332 43.264C349.113 43.9467 347.279 44.928 345.828 46.208V72.704C345.828 75.52 346.468 78.0373 347.748 80.256C349.113 82.3893 350.863 84.0533 352.996 85.248C355.129 86.4427 357.391 87.04 359.78 87.04Z" fill="white"/>
</svg>
